<?xml version="1.0" encoding="UTF-8"?>
<svg version="1.1" xmlns="http://www.w3.org/2000/svg" width="1920" height="1080">
<path d="M0 0 C0.66338379 0.35175293 1.32676758 0.70350586 2.01025391 1.06591797 C20.11298299 10.70424585 36.04730015 22.97110201 51 37 C51.52464844 37.49064941 52.04929687 37.98129883 52.58984375 38.48681641 C62.18728054 47.53844054 70.32593445 57.28119434 78 68 C78.44827148 68.61955566 78.89654297 69.23911133 79.35839844 69.87744141 C103.38084149 103.36519984 116.89982344 144.50065722 119.22949219 185.50146484 C119.28911133 186.40977051 119.34873047 187.31807617 119.41015625 188.25390625 C119.45277588 189.05127197 119.49539551 189.8486377 119.53930664 190.67016602 C120.1347648 193.68153707 121.1564855 195.54570084 123 198 C125.2887032 199.50159202 125.2887032 199.50159202 127.98046875 200.54296875 C128.97191895 200.97158203 129.96336914 201.40019531 130.98486328 201.84179688 C132.0417334 202.28587891 133.09860352 202.72996094 134.1875 203.1875 C144.41568361 207.68735277 153.86696526 212.5614628 163 219 C163.57298828 219.40089844 164.14597656 219.80179688 164.73632812 220.21484375 C185.29935211 234.85927266 201.77645625 254.039057 214 276 C214.34272949 276.60618164 214.68545898 277.21236328 215.03857422 277.83691406 C225.24335436 296.11661119 230.95611442 316.37612222 234 337 C234.15082031 338.00546875 234.30164062 339.0109375 234.45703125 340.046875 C234.76701984 342.70864373 234.91472908 345.32107197 235 348 C235.02578125 348.66161133 235.0515625 349.32322266 235.078125 350.00488281 C235.7973121 370.74444068 233.26387665 391.20272246 227 411 C226.79036621 411.66870117 226.58073242 412.33740234 226.36474609 413.02636719 C218.94500667 436.02241872 205.83728454 457.69501311 189 475 C187.68 474.67 186.36 474.34 185 474 C185.45305603 469.14184537 186.4829022 466.96852701 189.9375 463.5625 C218.84372426 432.82676787 229.45735855 388.73696794 228.19970703 347.68701172 C227.38863363 332.71289128 224.14743607 318.05761781 219 304 C218.55914063 302.77539062 218.11828125 301.55078125 217.6640625 300.2890625 C209.51507254 278.81354753 197.27476166 260.99643309 182 244 C181.39800781 243.32453125 180.79601563 242.6490625 180.17578125 241.953125 C165.97248352 226.92696619 147.36188082 216.76714377 128.8125 208.2265625 C116.60442073 202.60442073 116.60442073 202.60442073 114 200 C112.98716901 196.97053552 112.80504392 194.01262447 112.640625 190.8359375 C109.38691173 135.80799801 88.63477953 84.63477953 49.44921875 45.44921875 C47.91648746 43.91648746 46.40365084 42.36329639 44.921875 40.78125 C10.40138078 4.52231362 -44.00904149 -17.98715403 -93.78012085 -19.26394653 C-97.72884936 -19.32660169 -101.67589144 -19.33100603 -105.625 -19.3125 C-106.45727112 -19.31034485 -107.28954224 -19.3081897 -108.14703369 -19.30596924 C-121.29476543 -19.25150056 -134.09226059 -18.69889097 -147 -16 C-147.9384375 -15.80664062 -148.876875 -15.61328125 -149.84375 -15.4140625 C-180.87133419 -8.80028798 -210.63449278 3.7916963 -236 23 C-237.40572266 24.06154297 -237.40572266 24.06154297 -238.83984375 25.14453125 C-243.99509261 29.17182119 -248.86028053 33.49639004 -253.67578125 37.921875 C-255.2688195 39.34623861 -256.91083474 40.71712781 -258.58984375 42.0390625 C-260.74576933 43.7931543 -262.46569009 45.50725844 -264.25 47.625 C-266.1257691 49.83084006 -268.0037391 52.00395905 -269.9921875 54.109375 C-286.17695517 71.30198535 -297.25269667 91.61284826 -307.08984375 112.890625 C-307.41839355 113.59251953 -307.74694336 114.29441406 -308.08544922 115.01757812 C-308.92016195 116.82693941 -309.71427431 118.6548901 -310.50390625 120.484375 C-312 123 -312 123 -313.91015625 124.08984375 C-316.98192663 123.95778633 -318.16246184 122.59200285 -320.4375 120.5625 C-343.25228865 101.4447063 -369.63271116 94.77332304 -399 97 C-417.95497726 99.30388024 -435.41631585 107.94140604 -450 120 C-450.72960937 120.58265625 -451.45921875 121.1653125 -452.2109375 121.765625 C-463.33986267 131.05925374 -470.93826381 142.98141782 -477 156 C-477.29422852 156.60134766 -477.58845703 157.20269531 -477.89160156 157.82226562 C-483.35795137 169.29728631 -483.93921284 181.16154984 -484.41943359 193.6640625 C-484.47180176 194.96988281 -484.52416992 196.27570313 -484.578125 197.62109375 C-484.63081543 199.39117798 -484.63081543 199.39117798 -484.68457031 201.19702148 C-485 204 -485 204 -487 206 C-489.1347777 206.34738385 -491.28494515 206.60164694 -493.4375 206.8125 C-531.60980634 211.24233797 -569.02979951 231.8739943 -593 262 C-596.90198499 267.177711 -600.48564807 272.55454389 -604 278 C-604.64839844 278.98484375 -605.29679687 279.9696875 -605.96484375 280.984375 C-626.51914416 313.98311579 -631.44909921 356.16514029 -622.875 393.625 C-613.874065 430.16283885 -591.40621364 461.34346495 -560 482 C-559.25363281 482.49918945 -558.50726562 482.99837891 -557.73828125 483.51269531 C-538.10348074 496.5411702 -516.85665109 507.22842037 -494.33886719 514.26464844 C-492.0199794 514.99371838 -489.71770469 515.76333625 -487.4140625 516.5390625 C-465.35492904 523.76406127 -440.1338553 529.44312729 -416.875 528.9375 C-412.14883354 529.04024275 -407.60485301 529.98475682 -403 531 C-403.33 532.98 -403.66 534.96 -404 537 C-471.94738418 535.3113447 -545.69710193 512.39381919 -593.64355469 462.28222656 C-601.70474703 453.6498074 -608.19590318 444.26878669 -614 434 C-614.36077637 433.36368652 -614.72155273 432.72737305 -615.09326172 432.07177734 C-632.87391003 400.10923803 -638.81159362 359.67134307 -630 324 C-629.83371094 323.27925293 -629.66742187 322.55850586 -629.49609375 321.81591797 C-626.71144224 309.89606248 -622.34994207 298.9862619 -617 288 C-616.68691895 287.34402832 -616.37383789 286.68805664 -616.05126953 286.01220703 C-609.0194676 271.4162857 -599.18685167 258.67239211 -588 247 C-586.7934375 245.69869141 -586.7934375 245.69869141 -585.5625 244.37109375 C-562.17819757 219.90805118 -532.01159259 207.04491139 -499.31640625 200.45947266 C-497.1987407 200.02916502 -495.09692252 199.52209961 -493 199 C-491.87370176 196.74740352 -491.77730046 195.24274797 -491.60546875 192.73828125 C-489.19678376 161.26108123 -477.23157373 133.88470988 -453 113 C-428.94309198 93.99823959 -399.8775511 87.6198585 -369.63232422 90.20214844 C-350.09941121 92.67703342 -332.59050161 102.50469928 -317 114 C-314.63509751 111.84468319 -313.26602734 109.852398 -311.90625 106.96484375 C-311.52154541 106.16457764 -311.13684082 105.36431152 -310.74047852 104.53979492 C-310.33112061 103.6810376 -309.9217627 102.82228027 -309.5 101.9375 C-301.83544147 86.2782217 -292.74017557 71.73244388 -282 58 C-281.58347168 57.46632813 -281.16694336 56.93265625 -280.73779297 56.3828125 C-263.8714572 35.0528338 -243.5172787 17.56554843 -220 4 C-219.28682617 3.5865332 -218.57365234 3.17306641 -217.83886719 2.74707031 C-151.37534486 -35.26130004 -67.24168287 -36.21753848 0 0 Z " fill="#4D2E76" transform="translate(1066,277)"/>
<path d="M0 0 C4.29154022 -0.0867562 8.58285668 -0.1403089 12.875 -0.1875 C14.70998047 -0.22520508 14.70998047 -0.22520508 16.58203125 -0.26367188 C18.33193359 -0.27817383 18.33193359 -0.27817383 20.1171875 -0.29296875 C21.73536377 -0.31653442 21.73536377 -0.31653442 23.38623047 -0.34057617 C24.68004639 -0.17199097 24.68004639 -0.17199097 26 0 C28.10483746 3.15725619 28.2472059 3.87374611 28.22705078 7.47143555 C28.22689972 8.37214279 28.22674866 9.27285004 28.22659302 10.20085144 C28.21627045 11.16968765 28.20594788 12.13852386 28.1953125 13.13671875 C28.1924826 14.13129593 28.18965271 15.12587311 28.18673706 16.15058899 C28.17553489 19.3296813 28.15043014 22.50849272 28.125 25.6875 C28.11497025 27.84179281 28.10584439 29.99609003 28.09765625 32.15039062 C28.07559546 37.43368972 28.04211756 42.71682479 28 48 C29.03640625 47.57847656 30.0728125 47.15695312 31.140625 46.72265625 C32.51036091 46.16913284 33.88015568 45.61575506 35.25 45.0625 C36.27287109 44.64581055 36.27287109 44.64581055 37.31640625 44.22070312 C47.185264 40.24441578 59.35172658 38.78600406 69.5625 42.625 C80.43273336 47.91272369 87.84133136 55.95297222 92.17578125 67.25 C97.3473505 84.50490404 97.87215469 105.80001971 89.421875 122.03125 C83.47624069 131.99420479 75.56302043 140.20818938 64.08911133 143.55786133 C54.19806415 145.65119853 42.83011085 144.97850059 34 140 C33.31292969 139.6184375 32.62585937 139.236875 31.91796875 138.84375 C30.27299257 137.90567804 28.63569841 136.9541574 27 136 C26.34 136 25.68 136 25 136 C24.01 137.98 23.02 139.96 22 142 C18.37515001 142.08681476 14.75056557 142.14032721 11.125 142.1875 C10.09246094 142.21263672 9.05992187 142.23777344 7.99609375 142.26367188 C7.00996094 142.27333984 6.02382813 142.28300781 5.0078125 142.29296875 C3.64100342 142.31653442 3.64100342 142.31653442 2.24658203 142.34057617 C1.50520996 142.22818604 0.76383789 142.1157959 0 142 C-2.25196407 138.62205389 -2.25094814 137.49518943 -2.25396729 133.54103088 C-2.26242676 131.83964966 -2.26242676 131.83964966 -2.27105713 130.10389709 C-2.26700867 128.8586174 -2.26296021 127.61333771 -2.25878906 126.33032227 C-2.2622937 125.01957733 -2.26579834 123.7088324 -2.26940918 122.35836792 C-2.27853633 118.76124676 -2.27498738 115.16424017 -2.26865101 111.56711698 C-2.26359164 107.80401374 -2.26828239 104.04092039 -2.27142334 100.27781677 C-2.27506362 93.95692176 -2.27026275 87.63607347 -2.26074219 81.31518555 C-2.24986221 74.00736544 -2.25337962 66.69965696 -2.264395 59.39183956 C-2.27347174 53.1191473 -2.27475112 46.84648863 -2.26951766 40.57379192 C-2.26639948 36.82673401 -2.26598434 33.07972856 -2.27259064 29.33267403 C-2.27944179 25.15473957 -2.26994499 20.97699742 -2.25878906 16.79907227 C-2.26283752 15.5558168 -2.26688599 14.31256134 -2.27105713 13.03163147 C-2.26541748 11.8945575 -2.25977783 10.75748352 -2.25396729 9.58595276 C-2.25321323 8.59799996 -2.25245918 7.61004717 -2.25168228 6.59215641 C-1.99288235 3.926693 -1.36091288 2.28293804 0 0 Z M33 65 C32.12956055 65.29108643 31.25912109 65.58217285 30.36230469 65.88208008 C27.53364067 68.4181136 27.59934274 69.10471989 27.35302734 72.77514648 C27.31994311 74.80686754 27.31623501 76.83919886 27.3359375 78.87109375 C27.33115387 79.94496841 27.32637024 81.01884308 27.32144165 82.1252594 C27.31803763 84.39740461 27.32727498 86.66959847 27.34814453 88.94165039 C27.37487475 92.42119638 27.34842492 95.89750853 27.31640625 99.37695312 C27.31971077 101.58334046 27.32611787 103.78972579 27.3359375 105.99609375 C27.32581635 107.03785263 27.31569519 108.07961151 27.30526733 109.15293884 C27.29263805 114.92391211 27.29263805 114.92391211 30.34228516 119.60571289 C36.92370306 123.0584483 42.81992114 123.73312248 50 122 C56.16532209 119.31475519 60.97356488 115.12641023 63.96875 109.02734375 C67.93887063 98.31169409 67.76989218 83.40329932 63 73 C60.3127537 67.81745356 57.29906083 65.18727192 52 63 C45.45581551 61.07523986 39.30031716 62.83694833 33 65 Z " fill="#7B60E4" transform="translate(1013,678)"/>
<path d="M0 0 C1.11246094 -0.00257813 2.22492188 -0.00515625 3.37109375 -0.0078125 C4.53769531 -0.00007813 5.70429687 0.00765625 6.90625 0.015625 C8.07285156 0.00789063 9.23945312 0.00015625 10.44140625 -0.0078125 C11.55386719 -0.00523437 12.66632813 -0.00265625 13.8125 0 C14.83666016 0.00225586 15.86082031 0.00451172 16.91601562 0.00683594 C19.40625 0.265625 19.40625 0.265625 21.40625 2.265625 C21.66072559 4.65853786 21.66072559 4.65853786 21.66694641 7.72496033 C21.67403122 8.88452744 21.68111603 10.04409454 21.68841553 11.23880005 C21.68593811 12.51729828 21.68346069 13.79579651 21.6809082 15.11303711 C21.68525363 16.46805605 21.6904362 17.82307253 21.69639587 19.17808533 C21.70981579 22.86402875 21.71036122 26.54986983 21.70783257 30.23583293 C21.70676484 33.31001 21.71164118 36.38416619 21.716438 39.4583388 C21.72754362 46.70946497 21.72796473 53.96053935 21.72192383 61.21166992 C21.71588261 68.69845598 21.72819631 76.18505418 21.7494939 83.67180818 C21.7670929 90.09393513 21.77311394 96.51600219 21.76985615 102.93815237 C21.76804035 106.7763295 21.77070882 110.61437264 21.78457069 114.452528 C21.79711683 118.06161454 21.79523579 121.67040765 21.78215981 125.27948952 C21.77865424 127.23864119 21.78999576 129.1978017 21.80172729 131.15692139 C21.79471298 132.31930832 21.78769867 133.48169525 21.7804718 134.67930603 C21.78063954 135.69160247 21.78080729 136.70389891 21.78098011 137.74687099 C21.40625 140.265625 21.40625 140.265625 20.00918865 142.09150028 C17.92919328 143.61506076 16.66091597 143.63902906 14.09765625 143.62890625 C13.26814453 143.62826172 12.43863281 143.62761719 11.58398438 143.62695312 C10.72095703 143.61083984 9.85792969 143.59472656 8.96875 143.578125 C8.10958984 143.58134766 7.25042969 143.58457031 6.36523438 143.58789062 C-1.04215877 143.52467781 -1.04215877 143.52467781 -4.59375 141.265625 C-5.84375 138.640625 -5.84375 138.640625 -6.59375 136.265625 C-7.88345703 136.98878906 -7.88345703 136.98878906 -9.19921875 137.7265625 C-21.57096263 144.43579327 -32.6266947 146.77101079 -46.59375 143.265625 C-55.11478226 140.6265996 -62.50889375 134.98788161 -67.4375 127.51171875 C-76.14344117 110.59983978 -77.66432171 90.74893258 -72.55078125 72.5546875 C-68.43241859 61.11923389 -62.04155239 50.94982312 -51.15625 44.9140625 C-41.03086923 40.28436537 -29.05816891 39.26185574 -18.46875 43.078125 C-14.75408536 44.62689093 -11.19090434 46.46334769 -7.59375 48.265625 C-7.59819122 47.69377472 -7.60263245 47.12192444 -7.60720825 46.53274536 C-7.65135951 40.59591158 -7.68158212 34.65912422 -7.70361328 28.72216797 C-7.71368825 26.50470079 -7.72734859 24.28724695 -7.74462891 22.06982422 C-7.76881163 18.88766188 -7.78021797 15.70567476 -7.7890625 12.5234375 C-7.79938507 11.52756622 -7.80970764 10.53169495 -7.82034302 9.50564575 C-7.82049408 8.58484222 -7.82064514 7.6640387 -7.82080078 6.71533203 C-7.825242 5.9025882 -7.82968323 5.08984436 -7.83425903 4.25247192 C-7.26462438 -0.45328424 -3.89715985 0.00858405 0 0 Z M-39.78125 69.265625 C-46.80738577 78.15433219 -46.55689138 90.46429375 -45.59375 101.265625 C-44.32607684 108.55933869 -41.65880872 114.36188516 -36.21875 119.515625 C-30.83595369 123.10415587 -26.49487283 123.6076412 -20.203125 122.81640625 C-16.06754393 121.94347671 -12.21638914 120.45241172 -8.59375 118.265625 C-7.41826735 115.9146597 -7.46096228 114.50000338 -7.44848633 111.87939453 C-7.44210648 110.97150177 -7.43572662 110.06360901 -7.42915344 109.12820435 C-7.42804062 108.14488129 -7.4269278 107.16155823 -7.42578125 106.1484375 C-7.42245285 105.13973602 -7.41912445 104.13103455 -7.41569519 103.09176636 C-7.41062595 100.95489967 -7.40828686 98.81802504 -7.40844727 96.68115234 C-7.40626361 93.41099993 -7.38811554 90.1411863 -7.36914062 86.87109375 C-7.36620616 84.79687616 -7.36422172 82.72265696 -7.36328125 80.6484375 C-7.35609573 79.6691629 -7.34891022 78.68988831 -7.34150696 77.68093872 C-7.3461219 76.3096431 -7.3461219 76.3096431 -7.35083008 74.91064453 C-7.34940506 74.10837433 -7.34798004 73.30610413 -7.34651184 72.47952271 C-7.62508963 69.98499384 -8.26724005 68.38780013 -9.59375 66.265625 C-19.42765623 61.10811645 -31.87091812 61.22023867 -39.78125 69.265625 Z " fill="#7B60E4" transform="translate(1073.59375,500.734375)"/>
<path d="M0 0 C2.94397469 3.95695523 2.82578227 6.76109788 2.6171875 11.5546875 C2.60848633 12.699375 2.60848633 12.699375 2.59960938 13.8671875 C2.51554608 17.70047377 2.34563349 19.68076851 0.1796875 22.9296875 C-1.36222404 22.78646647 -2.90383142 22.63996961 -4.4453125 22.4921875 C-5.73308594 22.37037109 -5.73308594 22.37037109 -7.046875 22.24609375 C-9.8203125 21.9296875 -9.8203125 21.9296875 -12.484375 21.41015625 C-17.18443353 20.73321574 -21.82741359 20.70532479 -26.5703125 20.6796875 C-27.50875 20.6590625 -28.4471875 20.6384375 -29.4140625 20.6171875 C-39.22489085 20.56298403 -48.0476574 22.50513221 -55.375 29.390625 C-64.97381244 39.56250087 -66.50922612 54.32508276 -66.1328125 67.73046875 C-65.49780857 79.06793478 -62.39152264 91.27774996 -54.23046875 99.5390625 C-46.70452778 105.55981527 -37.16782457 106.41746827 -27.8828125 106.2421875 C-26.43430908 106.22961914 -26.43430908 106.22961914 -24.95654297 106.21679688 C-19.17032093 106.11904012 -13.68020365 105.66536436 -8.0234375 104.37890625 C-4.56196923 103.67311041 -1.34054393 103.73411909 2.1796875 103.9296875 C4.42368879 106.17368879 3.50592158 111.16949997 3.5546875 114.1796875 C3.61076172 115.46939453 3.61076172 115.46939453 3.66796875 116.78515625 C3.72853576 121.15271098 3.63718008 123.28618146 1.046875 126.9296875 C-3.8169391 130.32242976 -9.06202833 130.94117053 -14.8203125 131.9296875 C-15.57441406 132.06246094 -16.32851563 132.19523438 -17.10546875 132.33203125 C-36.77596097 135.09878642 -57.9954343 132.60045974 -74.5703125 121.1796875 C-88.0663492 110.7712333 -95.35088812 96.97404974 -97.62182617 80.11889648 C-99.70186247 57.17709392 -97.98599851 34.87859216 -83.8203125 15.9296875 C-83.41683594 15.33800781 -83.01335938 14.74632812 -82.59765625 14.13671875 C-73.49162126 1.96749156 -58.07090266 -3.00244977 -43.7578125 -5.3828125 C-30.85449906 -6.87730175 -10.91209971 -8.0102671 0 0 Z " fill="#7B60E4" transform="translate(813.8203125,690.0703125)"/>
<path d="M0 0 C1.48147769 2.96295538 1.4547664 6.05733275 1.6875 9.3125 C1.74744141 9.97701172 1.80738281 10.64152344 1.86914062 11.32617188 C2.16479483 15.4207801 1.90013206 18.34378921 0 22 C-1 23 -1 23 -4.1875 23.1875 C-8.11314777 23.15238687 -11.87409583 22.60520763 -15.75 22 C-29.18079918 20.00972166 -42.64052658 19.87874877 -54.03125 28.27734375 C-61.96673452 35.2208927 -64.644041 43.77630913 -66 54 C-66.62417613 65.13375681 -66.9176109 76.41736275 -63 87 C-62.73316406 87.7425 -62.46632813 88.485 -62.19140625 89.25 C-59.03270158 96.66242695 -53.19687825 101.30951483 -45.875 104.375 C-34.24066307 108.7617172 -22.10835263 107.29221062 -10.18066406 105.06738281 C-2.48128348 103.63628382 -2.48128348 103.63628382 1 104 C4.07873665 107.07873665 3.36851287 110.68992789 3.375 114.8125 C3.39949219 115.62009766 3.42398438 116.42769531 3.44921875 117.25976562 C3.468502 121.18390647 3.28808696 123.48551058 1.33984375 126.96484375 C-1.38917582 129.3384985 -3.28904972 130.00822099 -6.8125 130.75 C-7.80894531 130.97171875 -8.80539062 131.1934375 -9.83203125 131.421875 C-32.33609288 135.52865813 -55.24215577 134.17983562 -75 122 C-88.44716953 112.5951065 -94.55793404 98.4747573 -97.61328125 82.8671875 C-100.02832305 58.71676948 -98.77767977 34.55636779 -83 15 C-74.70021743 4.86828344 -62.79969634 -1.58005741 -50 -4 C-49.14148438 -4.18175781 -48.28296875 -4.36351562 -47.3984375 -4.55078125 C-33.61968788 -6.37211022 -12.33968632 -7.69761385 0 0 Z " fill="#7B60E4" transform="translate(695,513)"/>
<path d="M0 0 C0.68578125 0.48082031 1.3715625 0.96164062 2.078125 1.45703125 C12.52418087 9.65040713 17.26702954 22.17601857 19 35 C20.43698857 50.58997037 18.73559403 66.92745787 8.95703125 79.66015625 C0.11298099 89.99597402 -10.08591948 95.34363445 -23.73754883 96.78198242 C-38.12084835 97.89349059 -51.61696368 95.28682608 -63.203125 86.2890625 C-74.72175348 75.8695398 -78.2104786 61.98657955 -79.27734375 47.140625 C-79.66945734 32.02072491 -76.49076236 15.98882978 -65.81640625 4.58984375 C-48.54535502 -10.52696883 -19.14483817 -13.54237584 0 0 Z M-43.3125 20.125 C-50.37012407 29.33059662 -50.74990925 41.57037665 -49.375 52.6875 C-48.0961058 59.72994406 -46.02879579 67.27627408 -39.875 71.5625 C-34.6036963 74.19815185 -29.50546581 75.1663756 -23.83984375 73.28125 C-18.62871602 70.86562443 -15.19784893 68.2212424 -13.1328125 62.66796875 C-8.92435881 49.3011182 -8.29164322 34.79171357 -14.75 21.875 C-18.33540062 17.29365476 -22.22862305 15.12800749 -27.9375 14.0625 C-34.15295263 13.59363607 -39.05384898 15.60346928 -43.3125 20.125 Z " fill="#7B60E4" transform="translate(850,550)"/>
<path d="M0 0 C1.57491211 -0.0299707 1.57491211 -0.0299707 3.18164062 -0.06054688 C4.69854492 -0.05958008 4.69854492 -0.05958008 6.24609375 -0.05859375 C7.63139282 -0.06137329 7.63139282 -0.06137329 9.04467773 -0.06420898 C12.43213993 0.61078712 13.57246131 1.62810125 15.5625 4.4375 C16.00073242 7.48901367 16.00073242 7.48901367 15.91796875 11.10546875 C15.9051738 12.09560471 15.9051738 12.09560471 15.89212036 13.10574341 C15.8720216 14.53341943 15.84309594 15.96099277 15.80630493 17.38833618 C15.71026003 21.20363544 15.68544805 25.01969172 15.6484375 28.8359375 C15.6389357 29.62307632 15.6294339 30.41021515 15.61964417 31.22120667 C15.53252057 39.01191628 15.62037552 46.79381497 15.82192993 54.58218384 C15.85712543 56.0198563 15.88646476 57.45768484 15.90975952 58.89559937 C15.94276015 60.90593873 15.99633914 62.91590825 16.05078125 64.92578125 C16.07696533 66.06571533 16.10314941 67.20564941 16.13012695 68.38012695 C16.60932918 71.76863601 17.55686745 73.68966922 19.5625 76.4375 C23.85963963 79.36415271 28.56774059 78.89997772 33.5625 78.4375 C37.03916545 77.77412512 40.40593047 77.06434737 43.5625 75.4375 C45.90914635 71.95857657 45.83627107 68.7664094 45.88134766 64.64941406 C45.89641609 63.63904335 45.89641609 63.63904335 45.91178894 62.60826111 C45.94259021 60.3898908 45.95964721 58.171641 45.9765625 55.953125 C45.99527665 54.41183436 46.01485025 52.87055394 46.0352478 51.32928467 C46.08654911 47.27860542 46.12618544 43.22789296 46.16339111 39.17706299 C46.20344337 35.04113564 46.25453013 30.90534621 46.3046875 26.76953125 C46.40142307 18.65894842 46.48583533 10.54829726 46.5625 2.4375 C49.62526126 0.8190813 51.66965612 0.1818817 55.15234375 0.171875 C56.45268555 0.16800781 56.45268555 0.16800781 57.77929688 0.1640625 C59.12604492 0.17566406 59.12604492 0.17566406 60.5 0.1875 C61.39396484 0.17976562 62.28792969 0.17203125 63.20898438 0.1640625 C72.04235094 0.19029373 72.04235094 0.19029373 75.5625 2.4375 C76.93134934 6.54162787 76.70570586 10.74140756 76.6953125 15.01953125 C76.69667709 15.88617905 76.69804169 16.75282684 76.69944763 17.64573669 C76.70149058 20.51386195 76.69510561 23.38188505 76.6875 26.25 C76.68628143 27.23005005 76.68506287 28.2101001 76.68380737 29.21984863 C76.66042252 45.37861552 76.44910631 61.53213156 76.125 77.6875 C76.1054425 78.72798492 76.08588501 79.76846985 76.06573486 80.84048462 C76.00911202 83.77401902 75.94540246 86.70729971 75.87890625 89.640625 C75.86218369 90.52076767 75.84546112 91.40091034 75.82823181 92.307724 C75.67784151 98.32215849 75.67784151 98.32215849 74.5625 99.4375 C71.11135297 99.68896124 67.64672797 99.62272419 64.1875 99.625 C62.72957031 99.64336914 62.72957031 99.64336914 61.2421875 99.66210938 C60.30890625 99.66404297 59.375625 99.66597656 58.4140625 99.66796875 C57.12749756 99.67413208 57.12749756 99.67413208 55.81494141 99.68041992 C53.5625 99.4375 53.5625 99.4375 50.5625 97.4375 C49.375 94.3125 49.375 94.3125 48.5625 91.4375 C47.54671875 91.98019531 46.5309375 92.52289062 45.484375 93.08203125 C32.29550521 99.99424116 19.27941031 105.2762185 4.25 101.1875 C-2.62696573 98.8480259 -7.17578419 95.35654974 -11.4375 89.4375 C-13.16862174 85.09699571 -13.78304787 81.18832415 -14.04980469 76.53613281 C-14.08726177 75.88599842 -14.12471886 75.23586403 -14.163311 74.56602859 C-14.54916031 67.33472738 -14.62045824 60.09972948 -14.640625 52.859375 C-14.64345238 52.15975899 -14.64627975 51.46014297 -14.64919281 50.73932648 C-14.66398205 47.05944976 -14.67334683 43.3796104 -14.67773438 39.69970703 C-14.68328832 35.91017045 -14.70751558 32.12098072 -14.73570633 28.33155441 C-14.75428408 25.39765364 -14.75953499 22.46383898 -14.76107025 19.52988434 C-14.76409233 18.13121833 -14.77210591 16.73255368 -14.78525543 15.33394623 C-14.8022626 13.39164843 -14.79859862 11.44920262 -14.79394531 9.50683594 C-14.79759094 8.40402283 -14.80123657 7.30120972 -14.80499268 6.16497803 C-14.4375 3.4375 -14.4375 3.4375 -13.0644989 1.5834198 C-9.44650121 -0.9647904 -4.25317308 -0.02861462 0 0 Z " fill="#7B60E4" transform="translate(910.4375,720.5625)"/>
<path d="M0 0 C4.29154022 -0.0867562 8.58285668 -0.1403089 12.875 -0.1875 C14.70998047 -0.22520508 14.70998047 -0.22520508 16.58203125 -0.26367188 C18.33193359 -0.27817383 18.33193359 -0.27817383 20.1171875 -0.29296875 C21.73536377 -0.31653442 21.73536377 -0.31653442 23.38623047 -0.34057617 C24.68004639 -0.17199097 24.68004639 -0.17199097 26 0 C28.38514043 3.57771064 28.2556935 5.16221731 28.27124023 9.41162109 C28.27646698 10.05751694 28.28169373 10.70341278 28.28707886 11.36888123 C28.29731205 12.77005969 28.30309808 14.1712761 28.30496025 15.57249069 C28.30862474 17.79221058 28.32535351 20.011484 28.34571838 22.23110962 C28.40111969 28.54135833 28.43179541 34.8516731 28.45629883 41.16210938 C28.4721966 45.02364464 28.50243984 48.88486367 28.54106331 52.74623489 C28.55269533 54.21576194 28.5586435 55.6853456 28.55874443 57.15491867 C28.55893705 59.21347699 28.5772435 61.27116681 28.59936523 63.32958984 C28.60443588 64.49968597 28.60950653 65.6697821 28.61473083 66.87533569 C29.04428022 70.35912767 29.89175008 72.216246 32 75 C37.7146519 78.49876647 42.54105403 78.41345355 49 77 C50.56321435 76.50089465 52.12171008 75.98686863 53.67626953 75.46142578 C54.89106491 75.05212326 54.89106491 75.05212326 56.13040161 74.634552 C57.05585281 74.32044876 57.05585281 74.32044876 58 74 C58.00808685 73.11716843 58.01617371 72.23433685 58.02450562 71.32475281 C58.1023982 63.01093919 58.18967265 54.69728869 58.28752708 46.38368511 C58.33750482 42.10942019 58.38383465 37.83518017 58.421875 33.56079102 C58.45870926 29.43691718 58.50506399 25.31325087 58.55806351 21.18955421 C58.57661738 19.61510668 58.59172168 18.04061465 58.60334396 16.46610069 C58.62018966 14.26323502 58.64921977 12.06084566 58.68115234 9.8581543 C58.69447601 8.60350876 58.70779968 7.34886322 58.7215271 6.05619812 C59 3 59 3 61 0 C63.49023438 -0.37231445 63.49023438 -0.37231445 66.59375 -0.36328125 C67.70621094 -0.36263672 68.81867188 -0.36199219 69.96484375 -0.36132812 C71.13144531 -0.34521484 72.29804687 -0.32910156 73.5 -0.3125 C75.24990234 -0.31733398 75.24990234 -0.31733398 77.03515625 -0.32226562 C85.73316782 -0.26683218 85.73316782 -0.26683218 88 2 C88.204152 5.00211576 88.28313361 7.91236077 88.2746582 10.91601562 C88.27976913 11.8396843 88.28488007 12.76335297 88.29014587 13.7150116 C88.30408578 16.778823 88.30308196 19.84241059 88.30078125 22.90625 C88.30466546 25.02852462 88.30899955 27.15079847 88.31376648 29.27307129 C88.32123794 33.72520465 88.32093049 38.17725873 88.31567383 42.62939453 C88.30987474 48.34638066 88.32681645 54.06304329 88.3500185 59.77997589 C88.36471954 64.163614 88.36563256 68.54717352 88.36250877 72.93083191 C88.36302371 75.03924704 88.36829351 77.14766639 88.37832069 79.25605774 C88.39059904 82.19891659 88.38394563 85.14113645 88.37231445 88.08398438 C88.37995819 88.96197189 88.38760193 89.83995941 88.39547729 90.74455261 C88.3742218 93.16638184 88.3742218 93.16638184 88 97 C84.18398858 99.54400761 81.04585144 99.33116914 76.625 99.3125 C75.49191406 99.33666992 75.49191406 99.33666992 74.3359375 99.36132812 C69.82924482 99.36526754 66.47586464 99.18732761 63 96 C62.1875 92.8125 62.1875 92.8125 62 90 C60.56720703 90.81404297 60.56720703 90.81404297 59.10546875 91.64453125 C45.25119734 99.38016291 31.90251467 103.61337558 15.93359375 100.37890625 C9.78404118 98.26646453 5.40628048 94.52955877 2 89 C-0.45632418 83.28095915 -1.50174421 78.53571125 -1.67578125 72.34375 C-1.70859695 71.49655396 -1.74141266 70.64935791 -1.77522278 69.77648926 C-2.1684504 58.30926751 -2.18603638 46.83062184 -2.18530273 35.35791016 C-2.18752806 31.45074154 -2.2058696 27.54383912 -2.22460938 23.63671875 C-2.22753727 21.14323012 -2.2295261 18.64974017 -2.23046875 16.15625 C-2.23765427 14.99283081 -2.24483978 13.82941162 -2.25224304 12.6307373 C-2.24916641 11.5544104 -2.24608978 10.4780835 -2.24291992 9.36914062 C-2.24434494 8.42574829 -2.24576996 7.48235596 -2.24723816 6.51037598 C-1.98901592 3.88847126 -1.33195731 2.25112569 0 0 Z " fill="#7B60E4" transform="translate(890,545)"/>
<path d="M0 0 C1.48619895 2.97239791 1.13177009 5.69619578 1.125 9 C1.12886719 10.8871875 1.12886719 10.8871875 1.1328125 12.8125 C1 16 1 16 0 18 C-4.97512865 18.19510308 -9.52034946 17.81952509 -14.4375 17 C-22.77807162 15.65163969 -29.91423939 15.30474646 -38 18 C-40.22534695 20.73709522 -40.22534695 20.73709522 -40 23.4375 C-38.3284636 27.72081203 -34.50216401 29.30314245 -30.49755859 31.16088867 C-26.57292552 32.85270616 -22.62683841 34.48903723 -18.67382812 36.11328125 C-8.77790776 40.2847723 1.11411868 45.26829798 6.13671875 55.26171875 C8.29490984 62.10738371 8.15571712 71.2527858 5.4375 77.9375 C0.90928906 86.37427197 -5.58315966 92.52122056 -14.5078125 95.96875 C-30.51673526 100.78480476 -49.21961414 98.87836956 -64.328125 92.0625 C-66 91 -66 91 -68 88 C-68.30078125 84.96875 -68.30078125 84.96875 -68.3125 81.5 C-68.32925781 80.3553125 -68.34601563 79.210625 -68.36328125 78.03125 C-68 75 -68 75 -66.90625 73.046875 C-63.88480644 71.38755764 -61.52122239 72.16775243 -58.1875 72.75 C-56.98480469 72.95109375 -55.78210937 73.1521875 -54.54296875 73.359375 C-52.40945145 73.7451488 -50.27824202 74.14454961 -48.15234375 74.5703125 C-43.88164651 75.15243976 -39.67967963 75.14486775 -35.375 75.125 C-34.529375 75.12886719 -33.68375 75.13273438 -32.8125 75.13671875 C-31.99523438 75.13542969 -31.17796875 75.13414062 -30.3359375 75.1328125 C-29.23064697 75.13112061 -29.23064697 75.13112061 -28.10302734 75.12939453 C-25.89819296 74.99373604 -24.07025044 74.78487827 -22 74 C-20.75056663 70.2516999 -20.38960468 67.93365875 -21 64 C-26.10030677 59.41917695 -33.23991489 57.04175622 -39.5 54.5 C-50.15315229 50.17454505 -60.74338873 45.63397748 -66.1015625 34.765625 C-69.29229356 26.11784922 -68.42354717 18.41450148 -65 10 C-60.84755999 2.15143207 -54.52213808 -1.84150226 -46.2109375 -4.421875 C-32.04601367 -8.12577734 -12.45992524 -8.40019223 0 0 Z " fill="#7B60E4" transform="translate(1190,725)"/>
<path d="M0 0 C1.11246094 -0.00257813 2.22492187 -0.00515625 3.37109375 -0.0078125 C4.53769531 -0.00007813 5.70429687 0.00765625 6.90625 0.015625 C8.07285156 0.00789063 9.23945312 0.00015625 10.44140625 -0.0078125 C11.55386719 -0.00523437 12.66632812 -0.00265625 13.8125 0 C14.83666016 0.00225586 15.86082031 0.00451172 16.91601562 0.00683594 C19.40625 0.265625 19.40625 0.265625 21.40625 2.265625 C21.66516972 4.26531029 21.66516972 4.26531029 21.67799377 6.76913452 C21.6877121 7.71690262 21.69743042 8.66467072 21.70744324 9.64115906 C21.70803238 10.68431778 21.70862152 11.7274765 21.70922852 12.80224609 C21.71766785 13.89826645 21.72610718 14.9942868 21.73480225 16.1235199 C21.76068148 19.76203827 21.77274502 23.40047539 21.78515625 27.0390625 C21.80132192 29.56011607 21.81850091 32.08116333 21.83665466 34.60220337 C21.87775871 40.57202679 21.91073143 46.54183611 21.93912882 52.51172888 C21.99306419 63.83037226 22.06127797 75.14890855 22.13706779 86.4674263 C22.15993154 90.18997636 22.17618555 93.91251463 22.19178772 97.63510132 C22.20519476 99.91347379 22.21880959 102.19184506 22.23266602 104.47021484 C22.23527939 105.5093251 22.23789276 106.54843536 22.24058533 107.61903381 C22.24748383 108.57244156 22.25438232 109.5258493 22.26148987 110.50814819 C22.26534478 111.33516424 22.2691997 112.16218029 22.27317142 113.01425743 C22.40352804 115.21957601 22.79550196 117.14750792 23.40625 119.265625 C24.26089844 119.39839844 25.11554687 119.53117188 25.99609375 119.66796875 C27.65318359 119.93287109 27.65318359 119.93287109 29.34375 120.203125 C30.44589844 120.37714844 31.54804687 120.55117188 32.68359375 120.73046875 C35.40625 121.265625 35.40625 121.265625 36.40625 122.265625 C36.49256874 123.60829913 36.51331473 124.95536822 36.50390625 126.30078125 C36.50068359 127.10966797 36.49746094 127.91855469 36.49414062 128.75195312 C36.48157227 130.0271582 36.48157227 130.0271582 36.46875 131.328125 C36.46423828 132.18212891 36.45972656 133.03613281 36.45507812 133.91601562 C36.44325373 136.03258163 36.42531769 138.14911185 36.40625 140.265625 C26.7853287 144.5210325 17.14130337 146.43445174 6.90625 142.515625 C0.07255104 139.33690279 -2.94530105 136.45427214 -5.59375 129.265625 C-5.94558224 128.47479869 -6.29741447 127.68397238 -6.65990829 126.86918163 C-7.66064522 124.0791207 -7.84522115 122.00053897 -7.84771729 119.04621887 C-7.85335693 118.01570908 -7.85899658 116.98519928 -7.86480713 115.92346191 C-7.86075867 114.80379028 -7.85671021 113.68411865 -7.85253906 112.53051758 C-7.8560437 111.34306442 -7.85954834 110.15561127 -7.86315918 108.93217468 C-7.87044348 105.68445083 -7.86875069 102.43689051 -7.86240101 99.18916917 C-7.85733084 95.78949536 -7.86203496 92.38983232 -7.86517334 88.99015808 C-7.86880853 83.28484134 -7.86402407 77.57957644 -7.85449219 71.87426758 C-7.84359282 65.27413632 -7.8471457 58.67412848 -7.858145 52.07400018 C-7.86721197 46.40681297 -7.86850653 40.73966296 -7.86326766 35.07247084 C-7.86014671 31.68768042 -7.85974233 28.3029481 -7.86634064 24.91816139 C-7.87139529 21.14953772 -7.86371115 17.3811545 -7.85253906 13.61254883 C-7.85658752 12.4868045 -7.86063599 11.36106018 -7.86480713 10.20120239 C-7.85916748 9.17915207 -7.85352783 8.15710175 -7.84771729 7.1040802 C-7.84696323 6.21274793 -7.84620918 5.32141565 -7.84543228 4.40307331 C-7.27863493 -0.41053545 -4.0373038 0.00889274 0 0 Z " fill="#7B60E4" transform="translate(723.59375,500.734375)"/>
<path d="M0 0 C1.11246094 -0.00257813 2.22492187 -0.00515625 3.37109375 -0.0078125 C4.53769531 -0.00007812 5.70429687 0.00765625 6.90625 0.015625 C8.07285156 0.00789062 9.23945312 0.00015625 10.44140625 -0.0078125 C11.55386719 -0.00523437 12.66632812 -0.00265625 13.8125 0 C14.83666016 0.00225586 15.86082031 0.00451172 16.91601562 0.00683594 C19.40625 0.265625 19.40625 0.265625 21.40625 2.265625 C21.6623764 4.26531029 21.6623764 4.26531029 21.67126465 6.76913452 C21.68367439 8.19078667 21.68367439 8.19078667 21.69633484 9.64115906 C21.69535294 10.68431778 21.69437103 11.7274765 21.69335938 12.80224609 C21.70019241 13.89826645 21.70702545 14.9942868 21.71406555 16.1235199 C21.72768235 18.50964674 21.73671707 20.89580302 21.74177551 23.28196335 C21.75003594 27.05548118 21.77051479 30.82875365 21.79431152 34.60220337 C21.84263664 42.61497818 21.87560324 50.62776793 21.90625 58.640625 C21.94174893 67.91630482 21.98375368 77.19185404 22.04219055 86.4674263 C22.06230247 90.19000048 22.07058817 93.91248405 22.07849121 97.63510132 C22.09146161 99.91347587 22.10498163 102.19184737 22.11914062 104.47021484 C22.11815872 105.5093251 22.11717682 106.54843536 22.11616516 107.61903381 C22.12443832 108.57244156 22.13271149 109.5258493 22.14123535 110.50814819 C22.14416847 111.33516424 22.14710159 112.16218029 22.1501236 113.01425743 C22.43620795 115.52895728 23.03864609 117.14178624 24.40625 119.265625 C26.7077911 120.04364687 26.7077911 120.04364687 29.40625 120.265625 C35.31534091 121.17471591 35.31534091 121.17471591 36.40625 122.265625 C36.56048249 124.69775272 36.63791746 127.08198067 36.65625 129.515625 C36.676875 130.18464844 36.6975 130.85367188 36.71875 131.54296875 C36.7535131 135.96657342 36.19755715 138.79605629 33.40625 142.265625 C29.19528348 143.66928051 25.19349127 143.53009625 20.78125 143.578125 C19.91628906 143.60712891 19.05132813 143.63613281 18.16015625 143.66601562 C10.37979269 143.74183626 4.22325694 141.96015337 -1.46875 136.515625 C-10.71539886 122.37369145 -7.75663619 102.33891262 -7.76171875 86.125 C-7.7649365 83.70599346 -7.76830096 81.2869871 -7.77180481 78.86798096 C-7.77775923 73.82848661 -7.7796481 68.78900933 -7.77905273 63.74951172 C-7.77895035 57.27963763 -7.79269711 50.80987141 -7.80982494 44.34002304 C-7.82090569 39.35936981 -7.8229733 34.37874321 -7.82244301 29.39807892 C-7.82362542 27.01055778 -7.82806172 24.62303601 -7.83577538 22.23552704 C-7.8455125 18.91572759 -7.84272418 15.59617007 -7.83666992 12.27636719 C-7.84228943 11.28632187 -7.84790894 10.29627655 -7.85369873 9.27622986 C-7.84950424 8.37656998 -7.84530975 7.4769101 -7.84098816 6.54998779 C-7.84180531 5.37432314 -7.84180531 5.37432314 -7.84263897 4.17490768 C-7.23717806 -0.46971775 -3.8370099 0.00845156 0 0 Z " fill="#7B60E4" transform="translate(842.59375,677.734375)"/>
<path d="M0 0 C3.625 0.25 3.625 0.25 5.23974609 1.38037109 C7.13087871 3.93276686 7.66044366 6.33197189 8.4140625 9.4140625 C8.71570313 10.61804688 9.01734375 11.82203125 9.328125 13.0625 C9.63234375 14.320625 9.9365625 15.57875 10.25 16.875 C10.86433782 19.36789149 11.48137506 21.86011985 12.1015625 24.3515625 C12.37049316 25.45838379 12.63942383 26.56520508 12.91650391 27.70556641 C13.3769536 30.16579174 13.3769536 30.16579174 14.625 31.25 C15.41888678 28.27140954 16.21015639 25.29216284 17 22.3125 C17.33257813 21.06629883 17.33257813 21.06629883 17.671875 19.79492188 C18.95711561 14.93746841 20.10054929 10.10544127 20.98681641 5.15795898 C21.77293978 2.80770874 22.66463956 1.75425416 24.625 0.25 C30.68514966 -0.39930175 30.68514966 -0.39930175 33.22973633 1.35864258 C35.21137935 4.04486978 35.69818858 6.64170159 36.44921875 9.88671875 C36.60034622 10.52615921 36.75147369 11.16559967 36.90718079 11.82441711 C37.38580033 13.85989104 37.84931242 15.8984651 38.3125 17.9375 C38.63507624 19.32119505 38.95863295 20.70466192 39.28320312 22.08789062 C40.07518095 25.47269028 40.853651 28.86043233 41.625 32.25 C44.53672964 24.93156311 46.50597095 17.47611817 48.46289062 9.85546875 C48.71361328 8.90542969 48.96433594 7.95539063 49.22265625 6.9765625 C49.44445557 6.11627441 49.66625488 5.25598633 49.89477539 4.36962891 C50.625 2.25 50.625 2.25 52.625 0.25 C56.125 0 56.125 0 59.625 0.25 C60.615 1.24 60.615 1.24 61.625 2.25 C61.47180176 4.1177063 61.47180176 4.1177063 60.90820312 6.34814453 C60.70654541 7.1551178 60.5048877 7.96209106 60.29711914 8.79351807 C59.29779252 12.44588807 58.23351385 16.06871025 57.09375 19.6796875 C56.85716675 20.43669952 56.6205835 21.19371155 56.37683105 21.97366333 C55.88119483 23.55562413 55.38365939 25.13699109 54.88427734 26.71777344 C54.12089271 29.13802183 53.36678554 31.56103478 52.61328125 33.984375 C52.12815804 35.52881992 51.64250013 37.07309701 51.15625 38.6171875 C50.93223511 39.33905243 50.70822021 40.06091736 50.47741699 40.80465698 C49.4669116 43.98085094 48.48809504 46.45535744 46.625 49.25 C44.8203125 49.9375 44.8203125 49.9375 42.75 50.25 C42.07195313 50.37375 41.39390625 50.4975 40.6953125 50.625 C37.40678277 50.02934178 36.4800482 47.92307452 34.625 45.25 C33.62011719 42.38745117 33.62011719 42.38745117 32.921875 39.29296875 C32.6640625 38.18115234 32.40625 37.06933594 32.140625 35.92382812 C31.88796875 34.77333984 31.6353125 33.62285156 31.375 32.4375 C31.106875 31.26767578 30.83875 30.09785156 30.5625 28.89257812 C29.90459082 26.01422547 29.25924262 23.13364316 28.625 20.25 C26.65249794 23.20875309 26.16310213 24.77365872 25.51171875 28.1796875 C25.31513672 29.14003906 25.11855469 30.10039062 24.91601562 31.08984375 C24.51560723 33.10354809 24.12487809 35.1192027 23.74414062 37.13671875 C22.52599274 42.98852884 21.60793894 46.71249373 16.625 50.25 C13 50.4375 13 50.4375 9.625 49.25 C6.92894352 44.7772009 5.44029593 39.96254318 3.92578125 35 C3.6858696 34.22366211 3.44595795 33.44732422 3.19877625 32.64746094 C2.69612132 31.01450698 2.19623175 29.38069949 1.69897461 27.74609375 C0.93890342 25.25460038 0.16428969 22.7679411 -0.61132812 20.28125 C-1.0998491 18.68777281 -1.58750863 17.09403122 -2.07421875 15.5 C-2.30541916 14.76233398 -2.53661957 14.02466797 -2.77482605 13.26464844 C-4.00950785 9.15425918 -4.72686766 5.59400408 -4.375 1.25 C-3.375 0.25 -3.375 0.25 0 0 Z " fill="#896CEB" transform="translate(649.375,249.75)"/>
<path d="M0 0 C5.72903808 0.50725858 9.9064816 2.15624826 15 4.75 C53.47610169 23.50087925 95.97628727 23.56405234 136 10 C136.95777344 9.61199219 137.91554688 9.22398437 138.90234375 8.82421875 C141.37756039 7.85164759 143.36417292 7.84938131 146 8 C146.33 9.65 146.66 11.3 147 13 C123.41430228 31.25810483 93.2885316 36.33751135 64.17797852 33.05029297 C41.55067956 30.13562177 15.34289651 20.89232041 0 3 C0 2.01 0 1.02 0 0 Z " fill="#896CEB" transform="translate(595,313)"/>
<path d="M0 0 C3.70150299 2.90117802 4.73180495 5.53113827 6 10 C6.30297852 12.92504883 6.30297852 12.92504883 6.37890625 15.95703125 C6.41306641 17.07013672 6.44722656 18.18324219 6.48242188 19.33007812 C6.50884766 20.47927734 6.53527344 21.62847656 6.5625 22.8125 C6.76099146 30.26648787 7.04852674 37.60052614 8 45 C4.74236778 47.17175481 3.77560787 47.46043998 0 47 C-2.3125 45.5 -2.3125 45.5 -4 44 C-5.051875 44.66 -6.10375 45.32 -7.1875 46 C-12.91552325 48.85890643 -18.74148425 48.8067618 -25 48 C-29.47915015 45.91487838 -32.18908976 43.62788172 -34 39 C-34.98686797 32.65114937 -34.12629357 28.08658373 -30.6796875 22.69140625 C-27.19034506 19.17771956 -23.56603491 17.83678191 -18.6953125 17.70703125 C-17.17159679 17.72673447 -15.64801148 17.76216318 -14.125 17.8125 C-12.949375 17.83280273 -12.949375 17.83280273 -11.75 17.85351562 C-9.83303218 17.88858211 -7.91642249 17.94237928 -6 18 C-6 15.36 -6 12.72 -6 10 C-12.74372665 5.44342794 -19.57408444 7.47290154 -27.125 8.625 C-28.07375 8.74875 -29.0225 8.8725 -30 9 C-31 8 -31 8 -31.3125 5.125 C-31 2 -31 2 -29.4375 0.25 C-20.51484986 -4.32571802 -8.79117328 -5.23729472 0 0 Z M-22 28 C-23.59152808 30.77443477 -23.59152808 30.77443477 -24 34 C-22.88483109 36.38964766 -21.86049542 38.13950458 -20 40 C-15.47714868 40.57002878 -12.02656505 40.61157067 -8.0625 38.25 C-5.47428352 35.43604155 -5.47428352 35.43604155 -4 32 C-4.27544195 28.68449798 -4.27544195 28.68449798 -6 26 C-7.934419 25.87416034 -9.87402763 25.82421991 -11.8125 25.8125 C-13.39998047 25.79123047 -13.39998047 25.79123047 -15.01953125 25.76953125 C-17.96482636 25.99728015 -19.58025433 26.34613713 -22 28 Z " fill="#896CEB" transform="translate(635,252)"/>
<path d="M0 0 C1.26392578 -0.020625 2.52785156 -0.04125 3.83007812 -0.0625 C12.25169066 -0.09771845 18.73329493 0.09748505 25.375 5.75 C28.74696036 9.83722468 28.78892606 13.51346811 28.70703125 18.61328125 C28.27983877 22.79233807 27.12054391 25.99577588 24.4375 29.25 C17.53328914 34.4169257 9.28705914 34.4110652 1 34.3125 C0.26845703 34.30798828 -0.46308594 34.30347656 -1.21679688 34.29882812 C-2.99873419 34.28718148 -4.78062863 34.26925191 -6.5625 34.25 C-6.55726318 34.9112085 -6.55202637 35.57241699 -6.54663086 36.25366211 C-6.52592344 39.23159851 -6.51285988 42.20951982 -6.5 45.1875 C-6.49162109 46.22841797 -6.48324219 47.26933594 -6.47460938 48.34179688 C-6.47138672 49.33115234 -6.46816406 50.32050781 -6.46484375 51.33984375 C-6.45960693 52.25628662 -6.45437012 53.17272949 -6.44897461 54.11694336 C-6.5625 56.25 -6.5625 56.25 -7.5625 57.25 C-10.5625 57.375 -10.5625 57.375 -13.5625 57.25 C-15.25545345 55.55704655 -14.68999729 53.42103516 -14.69189453 51.10351562 C-14.69662277 49.45675842 -14.69662277 49.45675842 -14.70144653 47.7767334 C-14.6994223 46.58197388 -14.69739807 45.38721436 -14.6953125 44.15625 C-14.69626923 42.93925415 -14.69722595 41.7222583 -14.69821167 40.46838379 C-14.69889372 37.88924101 -14.69703772 35.31009653 -14.69287109 32.73095703 C-14.68752322 28.76721364 -14.69281529 24.80358358 -14.69921875 20.83984375 C-14.69855797 18.34114558 -14.69727682 15.84244748 -14.6953125 13.34375 C-14.69733673 12.14899048 -14.69936096 10.95423096 -14.70144653 9.7232666 C-14.69829437 8.62542847 -14.69514221 7.52759033 -14.69189453 6.39648438 C-14.69109894 5.4246521 -14.69030334 4.45281982 -14.68948364 3.45153809 C-14.3537147 -2.36974796 -4.36356586 0.01742812 0 0 Z M-6.5625 9.25 C-6.64326963 11.70898655 -6.70287143 14.16533742 -6.75 16.625 C-6.77513672 17.32367187 -6.80027344 18.02234375 -6.82617188 18.7421875 C-6.89228561 21.01747677 -6.89228561 21.01747677 -6.5625 24.25 C-2.87391494 26.7090567 -0.01767814 26.58184578 4.25 26.5625 C5.29897461 26.58666992 5.29897461 26.58666992 6.36914062 26.61132812 C11.1393467 26.61579043 14.40462344 25.79193432 18.4375 23.25 C20.25828724 20.32090749 20.45307453 18.63157601 20.3125 15.1875 C19.29650498 11.77665958 18.23853792 10.41080068 15.4375 8.25 C11.82942878 6.98924868 8.229388 7.08258415 4.4375 7.0625 C3.220625 7.04832031 2.00375 7.03414062 0.75 7.01953125 C-2.3344563 7.23413375 -3.98923876 7.62241226 -6.5625 9.25 Z " fill="#3A4757" transform="translate(795.5625,877.75)"/>
<path d="M0 0 C2.26258021 2.46148836 3.8684743 4.84698457 5 8 C4.8125 11 4.8125 11 4 13 C1.265625 13.27734375 1.265625 13.27734375 -2 13 C-4.265625 11.06640625 -4.265625 11.06640625 -6.25 8.5625 C-8.72618346 5.28907728 -8.72618346 5.28907728 -12 3 C-17.96308973 2.44230096 -22.92876868 2.49843552 -28 6 C-33.38308735 11.38308735 -34.1177684 17.01569689 -34.375 24.3125 C-34.24577581 31.79027285 -32.81817102 38.11137471 -27.5 43.5625 C-22.87799914 46.22015049 -18.30442442 46.67546978 -13 46 C-6.26816508 43.37572537 -3.97862312 39.42394296 -1 33 C3.7734375 32.8125 3.7734375 32.8125 5.8125 34.5 C6.204375 34.995 6.59625 35.49 7 36 C4.33340623 43.555349 0.01566577 49.49216712 -7.234375 53.1171875 C-13.89311812 55.24271849 -23.21413615 55.34019287 -29.625 52.3125 C-36.79086764 47.86097616 -40.39033347 41.82899958 -43 34 C-43.85405173 24.63016905 -44.62542061 13.9839044 -39 6 C-38.56429687 5.35933594 -38.12859375 4.71867188 -37.6796875 4.05859375 C-33.53318843 -1.36810858 -28.56860605 -4.01293875 -22.0625 -5.8125 C-13.83146462 -6.31644094 -6.83593869 -4.83865573 0 0 Z " fill="#3A4757" transform="translate(896,882)"/>
<path d="M0 0 C0.38063221 2.3260857 0.71269945 4.66055264 1 7 C0.67 7.33 0.34 7.66 0 8 C-1.86792873 7.76226362 -3.73558754 7.52214519 -5.6015625 7.26953125 C-8.17883857 6.97990251 -10.7198966 6.82222795 -13.3125 6.75 C-14.54419922 6.71132813 -14.54419922 6.71132813 -15.80078125 6.671875 C-18.47592141 7.07100781 -19.32299213 7.93766022 -21 10 C-20.56806929 12.46414287 -20.56806929 12.46414287 -19 15 C-16.34629297 16.2517486 -13.96087418 17.19566622 -11.1875 18.0625 C-5.39443873 19.93410441 -0.49823512 21.66901984 3.3125 26.75 C4.86583354 31.83363704 4.71528396 35.62241608 2.3125 40.25 C-0.76319519 43.90758347 -3.43325447 46.47775149 -8 48 C-10.93312719 48.24904978 -13.86986607 48.2311822 -16.8125 48.25 C-17.60720703 48.270625 -18.40191406 48.29125 -19.22070312 48.3125 C-24.25234629 48.34579458 -27.60992467 47.72915201 -32 45 C-32.33 44.67 -32.66 44.34 -33 44 C-32.71269945 41.66055264 -32.38063221 39.3260857 -32 37 C-25.37051793 37.89243028 -25.37051793 37.89243028 -23.0625 38.5625 C-18.07129787 39.62123984 -12.91726343 39.22931586 -8 38 C-7.66602213 35.12586875 -7.66602213 35.12586875 -8 32 C-10.93091154 29.18687923 -13.95582958 28.27172442 -17.8125 27.1875 C-23.27141932 25.45906466 -27.19634691 23.30834493 -31 19 C-32.98709286 15.02581427 -32.53100065 10.32124663 -32 6 C-30.29589041 2.17912647 -27.46884218 0.28704623 -23.9375 -1.875 C-15.94689968 -4.8060499 -7.51716888 -3.46946256 0 0 Z " fill="#896CEB" transform="translate(746,252)"/>
<path d="M0 0 C2.475 0.495 2.475 0.495 5 1 C5.14695312 1.76183594 5.29390625 2.52367187 5.4453125 3.30859375 C7.27720177 11.74160126 9.73247229 18.71260347 16.73828125 24.109375 C20.25411806 26.14729718 23.4527191 27.2139258 27.375 28.25 C28.62023438 28.58515625 29.86546875 28.9203125 31.1484375 29.265625 C32.55996094 29.62914062 32.55996094 29.62914062 34 30 C34.495 32.475 34.495 32.475 35 35 C34.24976563 35.14695312 33.49953125 35.29390625 32.7265625 35.4453125 C23.1990787 37.53319938 15.01361724 40.26648748 9.5 48.75 C7.15940967 53.06505479 6.12529802 57.10320682 5.6171875 61.96875 C5 64 5 64 2.9453125 65.28125 C2.30335937 65.5184375 1.66140625 65.755625 1 66 C-2.3190017 62.6809983 -2.67374204 58.04488438 -3.8046875 53.578125 C-5.87830271 47.37083241 -8.87304379 43.43223283 -14.4296875 40.16796875 C-19.71807162 37.76488843 -25.38159016 36.41249349 -31 35 C-30.67 33.35 -30.34 31.7 -30 30 C-28.92621094 29.70867187 -27.85242187 29.41734375 -26.74609375 29.1171875 C-14.4106004 25.85303117 -14.4106004 25.85303117 -5.8125 16.96875 C-3.22147477 11.55807967 -1.59018959 5.77046072 0 0 Z M1 17 C0.484375 17.825 -0.03125 18.65 -0.5625 19.5 C-3.49637339 24.18527309 -7.84461695 27.4382431 -12 31 C-12.66 31.66 -13.32 32.32 -14 33 C-13.41992188 33.4125 -12.83984375 33.825 -12.2421875 34.25 C-6.79730328 38.27526094 -2.738736 42.35524172 1 48 C4.44140914 46.85286362 4.72354602 46.23139865 6.625 43.3125 C9.97770508 38.61363303 14.07034891 35.89206198 19 33 C18.319375 32.46375 17.63875 31.9275 16.9375 31.375 C15.968125 30.59125 14.99875 29.8075 14 29 C13.4225 28.54109375 12.845 28.0821875 12.25 27.609375 C9.25936551 25.16014847 6.76312928 22.9088314 4.6875 19.625 C4.130625 18.75875 3.57375 17.8925 3 17 C2.34 17 1.68 17 1 17 Z " fill="#4D2E76" transform="translate(1188,247)"/>
<path d="M0 0 C1.67542976 0.28604898 3.34385343 0.61781233 5 1 C5.14695312 1.76183594 5.29390625 2.52367187 5.4453125 3.30859375 C7.27720177 11.74160126 9.73247229 18.71260347 16.73828125 24.109375 C20.25411806 26.14729718 23.4527191 27.2139258 27.375 28.25 C28.62023437 28.58515625 29.86546875 28.9203125 31.1484375 29.265625 C32.55996094 29.62914062 32.55996094 29.62914062 34 30 C34.495 31.98 34.495 31.98 35 34 C34.45472656 34.17015625 33.90945313 34.3403125 33.34765625 34.515625 C19.75766969 38.57040932 19.75766969 38.57040932 9.81640625 48.00390625 C7.37260135 53.15111438 6.00472135 58.40793249 5 64 C2.525 64.495 2.525 64.495 0 65 C-0.226875 64.0925 -0.45375 63.185 -0.6875 62.25 C-3.99423655 50.45167731 -3.99423655 50.45167731 -11.55859375 41.23046875 C-15.67730196 39.15463981 -20.11199992 37.94269418 -24.57739258 36.82250977 C-26.6484375 36.2734375 -26.6484375 36.2734375 -30 35 C-30.9765625 32.8515625 -30.9765625 32.8515625 -31 31 C-29.88625 30.5875 -28.7725 30.175 -27.625 29.75 C-26.53445313 29.33621094 -26.53445313 29.33621094 -25.421875 28.9140625 C-23.77076281 28.2909008 -22.11418234 27.68208385 -20.453125 27.0859375 C-13.30595267 24.42199145 -8.16883234 21.92455691 -4.75 14.75 C-3.1645293 10.8290849 -2.16598132 6.90285273 -1.39453125 2.75 C-1 1 -1 1 0 0 Z M1 17 C-0.3415249 18.59089127 -0.3415249 18.59089127 -1.6875 20.625 C-4.28407858 24.22320718 -7.03874293 26.99520263 -10.484375 29.7734375 C-12.13665899 31.06677081 -12.13665899 31.06677081 -14 33 C-13.23816406 33.52787109 -13.23816406 33.52787109 -12.4609375 34.06640625 C-7.14970196 37.87577556 -1.977721 42.044558 1 48 C1.66 48 2.32 48 3 48 C4.3415249 46.40910873 4.3415249 46.40910873 5.6875 44.375 C8.28407858 40.77679282 11.03874293 38.00479737 14.484375 35.2265625 C16.13665899 33.93322919 16.13665899 33.93322919 18 32 C17.49210938 31.64808594 16.98421875 31.29617188 16.4609375 30.93359375 C11.14970196 27.12422444 5.977721 22.955442 3 17 C2.34 17 1.68 17 1 17 Z " fill="#4D2E76" transform="translate(500,392)"/>
<path d="M0 0 C2.475 0.495 2.475 0.495 5 1 C5.34611328 2.2684375 5.34611328 2.2684375 5.69921875 3.5625 C8.6562051 14.93882344 8.6562051 14.93882344 16.15625 23.48828125 C22.11679041 26.68546985 28.4396876 28.46593455 35 30 C34.67 31.65 34.34 33.3 34 35 C32.91460938 35.30292969 31.82921875 35.60585938 30.7109375 35.91796875 C29.26539716 36.3403669 27.82009711 36.76358798 26.375 37.1875 C25.66214844 37.38408203 24.94929688 37.58066406 24.21484375 37.78320312 C18.18729641 39.58040761 14.02647783 42.02914416 10.390625 47.359375 C7.75762787 52.87784844 6.06936338 57.97267916 5 64 C2.525 64.495 2.525 64.495 0 65 C-0.27972656 63.9378125 -0.55945312 62.875625 -0.84765625 61.78125 C-3.36464156 52.71238472 -5.63185502 44.84887883 -14.1328125 39.7109375 C-19.18983541 37.26171735 -24.49001104 35.98997438 -30 35 C-30.33 33.68 -30.66 32.36 -31 31 C-29.88625 30.5875 -28.7725 30.175 -27.625 29.75 C-26.53445313 29.33621094 -26.53445313 29.33621094 -25.421875 28.9140625 C-23.77076281 28.2909008 -22.11418234 27.68208385 -20.453125 27.0859375 C-12.69564652 24.1945137 -7.43524261 21.10333323 -3.87890625 13.3359375 C-2.24250005 8.98673347 -1.09470686 4.51151919 0 0 Z M1 17 C-0.3415249 18.59089127 -0.3415249 18.59089127 -1.6875 20.625 C-4.28407858 24.22320718 -7.03874293 26.99520263 -10.484375 29.7734375 C-12.13665899 31.06677081 -12.13665899 31.06677081 -14 33 C-13.23816406 33.52787109 -13.23816406 33.52787109 -12.4609375 34.06640625 C-7.14970196 37.87577556 -1.977721 42.044558 1 48 C4.44140914 46.85286362 4.72354602 46.23139865 6.625 43.3125 C9.97770508 38.61363303 14.07034891 35.89206198 19 33 C18.29875 32.443125 17.5975 31.88625 16.875 31.3125 C15.92625 30.549375 14.9775 29.78625 14 29 C13.01 28.236875 12.02 27.47375 11 26.6875 C8.64479095 24.74505954 6.97492833 22.70386603 5.25 20.1875 C4.13625 18.6096875 4.13625 18.6096875 3 17 C2.34 17 1.68 17 1 17 Z " fill="#4D2E76" transform="translate(1249,392)"/>
<path d="M0 0 C1.65 0 3.3 0 5 0 C5.14695312 0.75023437 5.29390625 1.50046875 5.4453125 2.2734375 C7.33931231 10.91617225 9.98909232 18.44487728 16.75 24.4375 C20.32108115 26.15436594 23.83970206 27.28748564 27.65234375 28.33984375 C30.18512614 29.0520571 32.58645835 29.95413195 35 31 C34.88671875 32.875 34.88671875 32.875 34 35 C31.26953125 36.125 31.26953125 36.125 27.8125 37 C19.76010642 39.27051098 14.9755084 42.14186679 10 49 C7.36806686 54.16638728 6.08894463 59.35029904 5 65 C3.35 65 1.7 65 0 65 C-0.1959375 64.02160156 -0.391875 63.04320312 -0.59375 62.03515625 C-2.50391781 53.34904785 -4.72310515 46.7184802 -12 41 C-17.28189947 37.79214483 -23.00622691 36.30773231 -29 35 C-29.33 33.68 -29.66 32.36 -30 31 C-27.60751194 29.96325518 -25.2483267 29.06431789 -22.72265625 28.41015625 C-15.85118074 26.62081979 -10.03037546 24.14243984 -5.72265625 18.25390625 C-2.61448157 12.61227597 -1.37319206 6.24178211 0 0 Z M2 16 C1.12528166 17.36201818 0.27602497 18.74040563 -0.5625 20.125 C-3.29087483 24.31995888 -6.1491288 27.00841901 -10.265625 29.80859375 C-12.14058111 31.01893758 -12.14058111 31.01893758 -14 33 C-13.43152344 33.32871094 -12.86304688 33.65742188 -12.27734375 33.99609375 C-6.11336028 37.79327222 -2.10256632 42.06381078 2 48 C2.721875 47.278125 3.44375 46.55625 4.1875 45.8125 C5.115625 44.884375 6.04375 43.95625 7 43 C7.78375 42.175 8.5675 41.35 9.375 40.5 C12.40102164 37.61807463 15.55678573 35.36299018 19 33 C18.29875 32.443125 17.5975 31.88625 16.875 31.3125 C15.92625 30.549375 14.9775 29.78625 14 29 C13.01 28.2575 12.02 27.515 11 26.75 C7.8580104 24.16009126 5.98539185 21.08445628 3.98046875 17.57421875 C3.49513672 16.79498047 3.49513672 16.79498047 3 16 C2.67 16 2.34 16 2 16 Z " fill="#4D2E76" transform="translate(754,153)"/>
<path d="M0 0 C1.11246094 -0.00257813 2.22492187 -0.00515625 3.37109375 -0.0078125 C4.53769531 -0.00007813 5.70429687 0.00765625 6.90625 0.015625 C8.07285156 0.00789063 9.23945312 0.00015625 10.44140625 -0.0078125 C11.55386719 -0.00523437 12.66632812 -0.00265625 13.8125 0 C14.83666016 0.00225586 15.86082031 0.00451172 16.91601562 0.00683594 C19.40625 0.265625 19.40625 0.265625 21.40625 2.265625 C21.66516972 4.26531029 21.66516972 4.26531029 21.67799377 6.76913452 C21.6877121 7.71690262 21.69743042 8.66467072 21.70744324 9.64115906 C21.70803238 10.68431778 21.70862152 11.7274765 21.70922852 12.80224609 C21.71766785 13.89826645 21.72610718 14.9942868 21.73480225 16.1235199 C21.76068148 19.76203827 21.77274502 23.40047539 21.78515625 27.0390625 C21.80132192 29.56011607 21.81850091 32.08116333 21.83665466 34.60220337 C21.87775871 40.57202679 21.91073143 46.54183611 21.93912882 52.51172888 C21.99306419 63.83037226 22.06127797 75.14890855 22.13706779 86.4674263 C22.15993154 90.18997636 22.17618555 93.91251463 22.19178772 97.63510132 C22.20519476 99.91347379 22.21880959 102.19184506 22.23266602 104.47021484 C22.23527939 105.5093251 22.23789276 106.54843536 22.24058533 107.61903381 C22.24748383 108.57244156 22.25438232 109.5258493 22.26148987 110.50814819 C22.26534478 111.33516424 22.2691997 112.16218029 22.27317142 113.01425743 C22.40352804 115.21957601 22.79550196 117.14750792 23.40625 119.265625 C24.26089844 119.39839844 25.11554687 119.53117188 25.99609375 119.66796875 C27.65318359 119.93287109 27.65318359 119.93287109 29.34375 120.203125 C30.44589844 120.37714844 31.54804687 120.55117188 32.68359375 120.73046875 C35.40625 121.265625 35.40625 121.265625 36.40625 122.265625 C36.49256874 123.60829913 36.51331473 124.95536822 36.50390625 126.30078125 C36.50068359 127.10966797 36.49746094 127.91855469 36.49414062 128.75195312 C36.48157227 130.0271582 36.48157227 130.0271582 36.46875 131.328125 C36.46423828 132.18212891 36.45972656 133.03613281 36.45507812 133.91601562 C36.44325373 136.03258163 36.42531769 138.14911185 36.40625 140.265625 C35.08625 140.595625 33.76625 140.925625 32.40625 141.265625 C32.56996094 140.56050781 32.73367188 139.85539063 32.90234375 139.12890625 C33.42324824 136.16903812 33.50491732 133.45501227 33.46875 130.453125 C33.45972656 129.47730469 33.45070313 128.50148438 33.44140625 127.49609375 C33.42980469 126.76003906 33.41820312 126.02398438 33.40625 125.265625 C32.74238281 125.20246094 32.07851563 125.13929688 31.39453125 125.07421875 C30.51152344 124.95175781 29.62851562 124.82929687 28.71875 124.703125 C27.84863281 124.59871094 26.97851562 124.49429688 26.08203125 124.38671875 C22.15463002 122.74122364 20.21399012 119.99914083 18.40625 116.265625 C17.70167924 112.60240983 17.72516513 109.01918951 17.76269531 105.29736328 C17.7538179 104.21530106 17.74494049 103.13323883 17.73579407 102.01838684 C17.71217405 98.45725529 17.72328731 94.89711548 17.734375 91.3359375 C17.72379591 88.85967946 17.71088469 86.38343037 17.69573975 83.90719604 C17.66154927 77.40068271 17.65615719 70.89446935 17.65765381 64.38787842 C17.65442537 55.19511951 17.611832 46.00245392 17.57391357 36.80978394 C17.55383452 31.91417506 17.54456309 27.01872576 17.54376221 22.12307739 C17.53994393 19.90122473 17.53610013 17.6793721 17.53222656 15.45751953 C17.53432632 14.43418015 17.53642609 13.41084076 17.53858948 12.35649109 C17.53602646 11.43126144 17.53346344 10.5060318 17.53082275 9.55276489 C17.5308643 8.74422625 17.53090584 7.9356876 17.53094864 7.10264778 C17.60728049 5.24745733 17.60728049 5.24745733 16.40625 4.265625 C13.58368509 4.16555492 10.7910181 4.12686902 7.96875 4.140625 C7.17919922 4.13675781 6.38964844 4.13289063 5.57617188 4.12890625 C1.35754255 4.02430031 1.35754255 4.02430031 -2.59375 5.265625 C-3.5650188 8.1794314 -3.7293966 10.07183236 -3.75196838 13.10612488 C-3.7617572 14.10311905 -3.77154602 15.10011322 -3.78163147 16.12731934 C-3.78738693 17.21992065 -3.7931424 18.31252197 -3.79907227 19.43823242 C-3.80897186 20.58959183 -3.81887146 21.74095123 -3.82907104 22.92720032 C-3.86071802 26.74181038 -3.88545621 30.5564329 -3.91015625 34.37109375 C-3.93072301 37.01239856 -3.9517194 39.65370006 -3.97312927 42.29499817 C-4.02304209 48.54224977 -4.06798615 54.78952687 -4.11115164 61.03682834 C-4.16053607 68.1492475 -4.21544973 75.26162059 -4.27083123 82.37399518 C-4.3846296 97.00449483 -4.49147332 111.63504033 -4.59375 126.265625 C-5.25375 126.265625 -5.91375 126.265625 -6.59375 126.265625 C-7.82841726 123.79629048 -7.72229162 122.16938878 -7.72746277 119.40698242 C-7.73172775 118.38059662 -7.73599274 117.35421082 -7.74038696 116.29672241 C-7.73993378 115.16626495 -7.73948059 114.0358075 -7.73901367 112.87109375 C-7.74237228 111.68407867 -7.7457309 110.4970636 -7.74919128 109.27407837 C-7.75707816 106.01382599 -7.76036968 102.75361177 -7.76100707 99.49335098 C-7.76195548 96.7744872 -7.76563288 94.05562957 -7.76917917 91.33676815 C-7.77732616 84.92470426 -7.77976313 78.51265441 -7.77905273 72.10058594 C-7.7784515 65.47837197 -7.78901176 58.85623935 -7.8047964 52.23404598 C-7.8178542 46.55418736 -7.82323739 40.87435538 -7.82259732 35.19448185 C-7.82234187 31.79957789 -7.82521941 28.40474623 -7.83577538 25.00985718 C-7.84551718 21.22655381 -7.84272041 17.44346266 -7.83666992 13.66015625 C-7.84228943 12.52969879 -7.84790894 11.39924133 -7.85369873 10.23452759 C-7.84950424 9.20814178 -7.84530975 8.18175598 -7.84098816 7.12426758 C-7.84153293 6.22903885 -7.84207769 5.33381012 -7.84263897 4.41145325 C-7.28348422 -0.40937131 -4.04260706 0.00890442 0 0 Z " fill="#886BEA" transform="translate(723.59375,500.734375)"/>
<path d="M0 0 C6.24795675 -0.02527124 12.49590041 -0.04283344 18.74389648 -0.05493164 C20.87118014 -0.05997298 22.99846031 -0.06680591 25.12573242 -0.07543945 C28.17627826 -0.08751379 31.22677845 -0.09323014 34.27734375 -0.09765625 C35.71327126 -0.10539818 35.71327126 -0.10539818 37.1782074 -0.11329651 C38.49946373 -0.11340981 38.49946373 -0.11340981 39.84741211 -0.11352539 C40.62684677 -0.115746 41.40628143 -0.11796661 42.20933533 -0.12025452 C44 0 44 0 45 1 C45.125 3.5 45.125 3.5 45 6 C42.82975971 8.17024029 37.52646302 7.73284103 34.45898438 7.98632812 C32.18593095 8.19508248 32.18593095 8.19508248 29 9 C27.12912374 11.77697119 26.74229986 14.08216731 26.69702148 17.38549805 C26.68037949 18.24286057 26.66373749 19.10022308 26.64659119 19.98356628 C26.63817703 20.9003566 26.62976288 21.81714691 26.62109375 22.76171875 C26.60409927 23.70811722 26.5871048 24.65451569 26.56959534 25.6295929 C26.51650664 28.64882774 26.47617088 31.66804873 26.4375 34.6875 C26.39362034 37.71759455 26.34699224 40.7475809 26.29469299 43.77754211 C26.26264971 45.66270322 26.23578681 47.5479605 26.21446228 49.43327332 C26.20097244 50.28117935 26.1874826 51.12908539 26.17358398 52.00268555 C26.16407211 52.7522905 26.15456024 53.50189545 26.14476013 54.2742157 C26 56 26 56 25 57 C22 57.125 22 57.125 19 57 C17.41680964 55.41680964 17.84371899 53.78482327 17.81054688 51.58789062 C17.79382935 50.65021851 17.77711182 49.71254639 17.7598877 48.74645996 C17.74631226 47.72669067 17.73273682 46.70692139 17.71875 45.65625 C17.70034058 44.61682251 17.68193115 43.57739502 17.66296387 42.50646973 C17.58397734 38.03811329 17.51644118 33.56959892 17.44775391 29.10107422 C17.39615665 25.8485538 17.33885397 22.59616866 17.28125 19.34375 C17.26767456 18.32398071 17.25409912 17.30421143 17.2401123 16.25354004 C17.22339478 15.31586792 17.20667725 14.3781958 17.18945312 13.41210938 C17.17692505 12.58239624 17.16439697 11.75268311 17.15148926 10.89782715 C17.2056178 8.98941756 17.2056178 8.98941756 16 8 C13.30764224 7.76321284 10.63501844 7.57801975 7.9375 7.4375 C7.17888672 7.39431641 6.42027344 7.35113281 5.63867188 7.30664062 C3.75934562 7.20026367 1.87969756 7.09960066 0 7 C-1.125 2.25 -1.125 2.25 0 0 Z " fill="#3A4757" transform="translate(907,878)"/>
<path d="M0 0 C3 0.125 3 0.125 4 1.125 C4.09881593 2.83818946 4.12798969 4.55544803 4.12939453 6.27148438 C4.13254669 7.36932251 4.13569885 8.46716064 4.13894653 9.5982666 C4.1369223 10.79302612 4.13489807 11.98778564 4.1328125 13.21875 C4.13376923 14.43574585 4.13472595 15.6527417 4.13571167 16.90661621 C4.13639372 19.48575899 4.13453772 22.06490347 4.13037109 24.64404297 C4.12502322 28.60778636 4.13031529 32.57141642 4.13671875 36.53515625 C4.13605797 39.03385442 4.13477682 41.53255252 4.1328125 44.03125 C4.13483673 45.22600952 4.13686096 46.42076904 4.13894653 47.6517334 C4.13579437 48.74957153 4.13264221 49.84740967 4.12939453 50.97851562 C4.12820114 52.43626404 4.12820114 52.43626404 4.12698364 53.92346191 C4 56.125 4 56.125 3 57.125 C0 57.25 0 57.25 -3 57.125 C-4.69295345 55.43204655 -4.12749729 53.29603516 -4.12939453 50.97851562 C-4.13412277 49.33175842 -4.13412277 49.33175842 -4.13894653 47.6517334 C-4.1369223 46.45697388 -4.13489807 45.26221436 -4.1328125 44.03125 C-4.13376923 42.81425415 -4.13472595 41.5972583 -4.13571167 40.34338379 C-4.13639372 37.76424101 -4.13453772 35.18509653 -4.13037109 32.60595703 C-4.12502322 28.64221364 -4.13031529 24.67858358 -4.13671875 20.71484375 C-4.13605797 18.21614558 -4.13477682 15.71744748 -4.1328125 13.21875 C-4.13483673 12.02399048 -4.13686096 10.82923096 -4.13894653 9.5982666 C-4.13579437 8.50042847 -4.13264221 7.40259033 -4.12939453 6.27148438 C-4.12859894 5.2996521 -4.12780334 4.32781982 -4.12698364 3.32653809 C-3.92925472 -0.10152348 -3.50159874 0.14589995 0 0 Z " fill="#3A4757" transform="translate(838,877.875)"/>
<path d="M0 0 C0.68126953 -0.01804687 1.36253906 -0.03609375 2.06445312 -0.0546875 C5.54855661 -0.01357713 7.64323791 0.47409332 10.6640625 2.2421875 C12.6875 4.5 12.6875 4.5 13.09765625 6.7265625 C11.75762102 15.97129991 9.18001996 23.64678449 2.6875 30.5 C1.0375 30.17 -0.6125 29.84 -2.3125 29.5 C-2.00505859 28.448125 -2.00505859 28.448125 -1.69140625 27.375 C-0.09189878 21.7422847 1.25433148 16.34777498 1.6875 10.5 C0.70342689 9.29504091 0.70342689 9.29504091 -1.17016602 9.38647461 C-1.96092529 9.39171143 -2.75168457 9.39694824 -3.56640625 9.40234375 C-4.84741211 9.40717773 -4.84741211 9.40717773 -6.15429688 9.41210938 C-7.50104492 9.42467773 -7.50104492 9.42467773 -8.875 9.4375 C-9.77669922 9.44201172 -10.67839844 9.44652344 -11.60742188 9.45117188 C-13.84251314 9.46299775 -16.07747437 9.4794778 -18.3125 9.5 C-18.3125 7.85 -18.3125 6.2 -18.3125 4.5 C-12.29078251 1.25753674 -6.75874053 0.07433995 0 0 Z " fill="#896CEB" transform="translate(744.3125,308.5)"/>
</svg>
